<?xml version="1.0" standalone="no"?>
<!DOCTYPE svg PUBLIC "-//W3C//DTD SVG 20010904//EN"
 "http://www.w3.org/TR/2001/REC-SVG-20010904/DTD/svg10.dtd">
<svg version="1.0" xmlns="http://www.w3.org/2000/svg"
 width="513.000000pt" height="486.000000pt" viewBox="0 0 513.000000 486.000000"
 preserveAspectRatio="xMidYMid meet">

<g transform="translate(0.000000,486.000000) scale(0.100000,-0.100000)"
fill="#000000" stroke="none">
<path d="M2370 4405 c-165 -18 -265 -40 -434 -96 -861 -286 -1430 -1109 -1393
-2014 7 -175 20 -268 57 -415 128 -505 425 -927 855 -1215 519 -347 1176 -436
1768 -240 532 176 957 547 1202 1049 141 288 206 573 206 896 0 331 -70 631
-217 921 -226 445 -602 794 -1050 973 -199 79 -352 117 -567 141 -155 17 -269
17 -427 0z m545 -254 c359 -67 660 -223 927 -479 566 -544 713 -1405 357
-2107 -266 -528 -776 -893 -1364 -977 -116 -16 -417 -16 -520 1 -250 40 -511
140 -720 278 -406 268 -677 670 -783 1162 -24 116 -26 144 -26 351 0 195 3
239 23 330 170 795 764 1349 1561 1460 113 15 421 5 545 -19z"/>
<path d="M2475 4114 c-287 -22 -564 -110 -800 -254 -223 -136 -438 -352 -573
-572 -176 -288 -254 -573 -254 -923 1 -181 18 -306 63 -465 94 -327 256 -587
506 -814 515 -469 1247 -585 1886 -299 185 82 344 191 501 343 271 261 437
583 508 980 17 96 16 418 -1 525 -94 583 -463 1072 -996 1320 -147 68 -326
122 -480 144 -82 12 -289 20 -360 15z m155 -456 c1 -33 -66 -258 -77 -258 -22
0 -22 16 -2 96 32 127 49 174 65 174 8 0 14 -6 14 -12z m-125 -25 c0 -6 -24
-30 -53 -54 l-54 -42 33 -26 c69 -54 79 -65 70 -80 -8 -12 -24 -3 -81 43 -39
32 -70 61 -68 66 2 5 32 31 67 59 60 49 86 58 86 34z m247 -39 c38 -31 66 -60
61 -64 -38 -37 -137 -109 -144 -104 -19 11 -6 31 46 70 l55 42 -55 41 c-54 41
-62 51 -48 64 10 11 12 10 85 -49z m188 -816 c0 -152 0 -152 -26 -173 l-26
-21 97 -479 c150 -745 141 -706 175 -738 l30 -28 0 -143 c0 -122 -2 -145 -16
-150 -9 -3 -83 -6 -164 -6 -132 0 -150 2 -159 18 -5 9 -26 100 -46 201 -20
102 -38 188 -41 193 -5 7 -364 12 -364 5 0 -21 -83 -404 -89 -410 -4 -4 -79
-6 -167 -5 l-159 3 -3 150 -3 150 30 25 c28 24 32 39 100 380 39 195 93 463
120 595 l49 240 -29 23 -29 23 0 143 c0 78 3 146 7 149 3 4 165 7 360 7 l353
0 0 -152z"/>
<path d="M2576 2319 c-10 -29 -96 -475 -96 -496 0 -22 3 -23 105 -23 72 0 105
4 105 11 0 18 -101 513 -106 518 -2 2 -6 -2 -8 -10z"/>
</g>
</svg>
